<svg viewBox="0 0 400 500" xmlns="http://www.w3.org/2000/svg">
    <polygon
        points="125.00,115.59 175.00,115.59 190.45,163.14 150.00,192.53 109.55,163.14"
        style="
            transform: rotate(0deg);
            transform-origin: 150px 150px;
            fill: rgba(255, 0, 0, 0.133);
            stroke: black;
            stroke-width: 1px;
        "
    ></polygon>
    <polygon
        points="125.00,46.77 175.00,46.77 190.45,94.32 150.00,123.71 109.55,94.32"
        style="
            transform: rotate(36deg);
            transform-origin: 150px 81.1809px;
            fill: rgba(255, 0, 0, 0.133);
            stroke: black;
            stroke-width: 1px;
        "
    ></polygon>
    <polygon
        points="190.45,94.32 240.45,94.32 255.90,141.88 215.45,171.27 175.00,141.88"
        style="
            transform: rotate(36deg);
            transform-origin: 215.451px 128.734px;
            fill: rgba(255, 0, 0, 0.133);
            stroke: black;
            stroke-width: 1px;
        "
    ></polygon>
    <polygon
        points="165.45,171.27 215.45,171.27 230.90,218.82 190.45,248.21 150.00,218.82"
        style="
            transform: rotate(36deg);
            transform-origin: 190.451px 205.676px;
            fill: rgba(255, 0, 0, 0.133);
            stroke: black;
            stroke-width: 1px;
        "
    ></polygon>
    <polygon
        points="84.55,171.27 134.55,171.27 150.00,218.82 109.55,248.21 69.10,218.82"
        style="
            transform: rotate(36deg);
            transform-origin: 109.549px 205.676px;
            fill: rgba(255, 0, 0, 0.133);
            stroke: black;
            stroke-width: 1px;
        "
    ></polygon>
    <polygon
        points="59.55,94.32 109.55,94.32 125.00,141.88 84.55,171.27 44.10,141.88"
        style="
            transform: rotate(36deg);
            transform-origin: 84.5492px 128.734px;
            fill: rgba(255, 0, 0, 0.133);
            stroke: black;
            stroke-width: 1px;
        "
    ></polygon>
    <polygon
        points="165.45,240.09 215.45,240.09 230.90,287.64 190.45,317.03 150.00,287.64"
        style="transform-origin: 190.451px 274.495px; fill: rgba(255, 0, 0, 0.133); stroke: black; stroke-width: 1px"
    ></polygon>
    <polygon
        points="246.35,240.09 296.35,240.09 311.80,287.64 271.35,317.03 230.90,287.64"
        style="transform-origin: 271.353px 274.495px; fill: rgba(255, 0, 0, 0.133); stroke: black; stroke-width: 1px"
    ></polygon>
    <polygon
        points="205.90,295.76 255.90,295.76 271.35,343.31 230.90,372.70 190.45,343.31"
        style="
            transform: rotate(36deg);
            transform-origin: 230.902px 330.171px;
            fill: rgba(255, 0, 0, 0.133);
            stroke: black;
            stroke-width: 1px;
        "
    ></polygon>
    <polygon
        points="140.45,317.03 190.45,317.03 205.90,364.58 165.45,393.97 125.00,364.58"
        style="transform-origin: 165.451px 351.437px; fill: rgba(255, 0, 0, 0.133); stroke: black; stroke-width: 1px"
    ></polygon>
    <polygon
        points="271.35,317.03 321.35,317.03 336.80,364.58 296.35,393.97 255.90,364.58"
        style="transform-origin: 296.353px 351.437px; fill: rgba(255, 0, 0, 0.133); stroke: black; stroke-width: 1px"
    ></polygon>
    <polygon
        points="205.90,364.58 255.90,364.58 271.35,412.13 230.90,441.52 190.45,412.13"
        style="transform-origin: 230.902px 398.99px; fill: rgba(255, 0, 0, 0.133); stroke: black; stroke-width: 1px"
    ></polygon>
</svg>
